<svg width="164" height="64" viewBox="0 0 164 64" fill="none" xmlns="http://www.w3.org/2000/svg">
<path d="M7.91708 22.067H14.1241V26.0559H7.91708V45.6201H2.97682V26.0559H0V22.067H2.97682V20.2309C2.97682 17.825 3.71575 15.8833 5.1936 14.406C6.67146 12.8864 8.48711 12.1266 10.6406 12.1266C12.794 12.1266 14.7152 12.9075 16.4042 14.4693L14.3774 17.9516C13.364 16.9385 12.3506 16.432 11.3373 16.432C10.2816 16.432 9.43716 16.7697 8.80379 17.4451C8.21265 18.0782 7.91708 18.9646 7.91708 20.1043V22.067Z" fill="black"/>
<path d="M29.7664 41.568C31.9198 41.568 33.6932 40.8504 35.0866 39.4153C36.5223 37.9801 37.2401 36.1229 37.2401 33.8436C37.2401 31.5642 36.5223 29.707 35.0866 28.2719C33.6932 26.8367 31.9198 26.1192 29.7664 26.1192C27.6129 26.1192 25.8395 26.8367 24.4461 28.2719C23.0527 29.707 22.356 31.5642 22.356 33.8436C22.356 36.1229 23.0527 37.959 24.4461 39.352C25.8395 40.8293 27.6129 41.568 29.7664 41.568ZM29.7664 46C26.2195 46 23.2638 44.8392 20.8992 42.5177C18.5347 40.1539 17.3524 37.2626 17.3524 33.8436C17.3524 30.4246 18.5347 27.5543 20.8992 25.2328C23.2638 22.869 26.2195 21.6872 29.7664 21.6872C33.3132 21.6872 36.2689 22.869 38.6335 25.2328C40.998 27.5543 42.1803 30.4246 42.1803 33.8436C42.1803 37.1359 40.998 40.0062 38.6335 42.4544C36.2689 44.8181 33.3132 46 29.7664 46Z" fill="black"/>
<path d="M55.9012 46C52.101 46 48.6809 44.8181 45.6407 42.4544L48.0475 38.5922C50.7499 40.6605 53.41 41.6946 56.0279 41.6946C57.1257 41.6946 57.9913 41.4413 58.6247 40.9348C59.3003 40.3861 59.6381 39.7107 59.6381 38.9088C59.6381 37.7269 58.0758 36.6716 54.9512 35.743C54.8667 35.7008 54.7612 35.6586 54.6345 35.6164C54.5501 35.5742 54.4867 35.5531 54.4445 35.5531C49.5465 34.2446 47.0974 32.0286 47.0974 28.905C47.0974 26.7101 47.9208 24.9584 49.5676 23.6499C51.2566 22.3414 53.4733 21.6872 56.2179 21.6872C58.9203 21.6872 61.496 22.4891 63.945 24.0931L62.1082 27.7654C60.2081 26.4991 58.118 25.8659 55.8379 25.8659C53.1778 25.8659 51.8477 26.7101 51.8477 28.3985C51.8477 29.1161 52.101 29.6437 52.6077 29.9814C53.1567 30.2768 54.0434 30.5723 55.2679 30.8678C57.1257 31.3743 58.688 31.8808 59.9548 32.3873C60.7993 32.7672 61.5382 33.1682 62.1716 33.5903C63.7761 34.6878 64.5784 36.3551 64.5784 38.5922C64.5784 40.7871 63.755 42.581 62.1082 43.9739C60.5037 45.3246 58.4347 46 55.9012 46Z" fill="black"/>
<path d="M78.34 46C74.5398 46 71.1196 44.8181 68.0794 42.4544L70.4862 38.5922C73.1886 40.6605 75.8487 41.6946 78.4666 41.6946C79.5645 41.6946 80.4301 41.4413 81.0634 40.9348C81.739 40.3861 82.0768 39.7107 82.0768 38.9088C82.0768 37.7269 80.5145 36.6716 77.3899 35.743C77.3055 35.7008 77.1999 35.6586 77.0732 35.6164C76.9888 35.5742 76.9255 35.5531 76.8832 35.5531C71.9852 34.2446 69.5362 32.0286 69.5362 28.905C69.5362 26.7101 70.3596 24.9584 72.0063 23.6499C73.6953 22.3414 75.9121 21.6872 78.6567 21.6872C81.359 21.6872 83.9347 22.4891 86.3837 24.0931L84.547 27.7654C82.6469 26.4991 80.5568 25.8659 78.2766 25.8659C75.6165 25.8659 74.2864 26.7101 74.2864 28.3985C74.2864 29.1161 74.5398 29.6437 75.0465 29.9814C75.5954 30.2768 76.4821 30.5723 77.7066 30.8678C79.5645 31.3743 81.1268 31.8808 82.3935 32.3873C83.238 32.7672 83.9769 33.1682 84.6103 33.5903C86.2148 34.6878 87.0171 36.3551 87.0171 38.5922C87.0171 40.7871 86.1937 42.581 84.547 43.9739C82.9424 45.3246 80.8734 46 78.34 46Z" fill="black"/>
<path d="M97.6119 45.6201H92.6716V22.067H97.6119V45.6201ZM92.0382 15.1024C92.0382 14.2582 92.3338 13.5407 92.9249 12.9497C93.5583 12.3166 94.3184 12 95.2051 12C96.0496 12 96.7674 12.3166 97.3585 12.9497C97.9919 13.5407 98.3086 14.2582 98.3086 15.1024C98.3086 15.9888 97.9919 16.7486 97.3585 17.3818C96.7674 17.9727 96.0496 18.2682 95.2051 18.2682C94.3184 18.2682 93.5794 17.9516 92.9883 17.3184C92.3549 16.7275 92.0382 15.9888 92.0382 15.1024Z" fill="black"/>
<path d="M109.791 45.6201H104.851V22.067H109.791V45.6201ZM104.218 15.1024C104.218 14.2582 104.513 13.5407 105.104 12.9497C105.738 12.3166 106.498 12 107.384 12C108.229 12 108.947 12.3166 109.538 12.9497C110.171 13.5407 110.488 14.2582 110.488 15.1024C110.488 15.9888 110.171 16.7486 109.538 17.3818C108.947 17.9727 108.229 18.2682 107.384 18.2682C106.498 18.2682 105.759 17.9516 105.168 17.3184C104.534 16.7275 104.218 15.9888 104.218 15.1024Z" fill="black"/>
<path d="M121.97 45.6201H117.03V12.7598H121.97V45.6201Z" fill="black"/>
<path d="M134.15 45.6201H129.21V22.067H134.15V45.6201ZM128.576 15.1024C128.576 14.2582 128.872 13.5407 129.463 12.9497C130.096 12.3166 130.856 12 131.743 12C132.587 12 133.305 12.3166 133.896 12.9497C134.53 13.5407 134.846 14.2582 134.846 15.1024C134.846 15.9888 134.53 16.7486 133.896 17.3818C133.305 17.9727 132.587 18.2682 131.743 18.2682C130.856 18.2682 130.117 17.9516 129.526 17.3184C128.893 16.7275 128.576 15.9888 128.576 15.1024Z" fill="black"/>
<path d="M139.869 33.7169C139.869 30.1713 140.988 27.28 143.226 25.0428C145.464 22.8057 148.208 21.6872 151.459 21.6872C154.584 21.6872 157.096 23.0168 158.996 25.676V12.7598H164V45.6201H158.996V42.0745C157.223 44.6915 154.563 46 151.016 46C147.934 46 145.295 44.8603 143.099 42.581C140.945 40.2595 139.869 37.3048 139.869 33.7169ZM152.093 41.568C154.077 41.568 155.745 40.8504 157.096 39.4153C158.447 37.9801 159.123 36.144 159.123 33.9069C159.123 31.712 158.426 29.8548 157.033 28.3352C155.682 26.8156 154.014 26.0559 152.029 26.0559C150.045 26.0559 148.335 26.8156 146.899 28.3352C145.506 29.8125 144.809 31.6698 144.809 33.9069C144.809 36.144 145.527 37.9801 146.962 39.4153C148.398 40.8504 150.108 41.568 152.093 41.568Z" fill="black"/>
<path d="M133 61.9794C133 61.677 133.103 61.4227 133.309 61.2165C133.515 61.0103 133.77 60.9072 134.072 60.9072C134.375 60.9072 134.629 61.0103 134.835 61.2165C135.055 61.4227 135.165 61.677 135.165 61.9794C135.165 62.2818 135.055 62.543 134.835 62.7629C134.629 62.9691 134.375 63.0722 134.072 63.0722C133.756 63.0722 133.509 62.9622 133.33 62.7423C133.11 62.5361 133 62.2818 133 61.9794Z" fill="black"/>
<path d="M138.878 62.9485H137.27V55.2784H138.878V62.9485ZM137.064 53.0103C137.064 52.7354 137.16 52.5017 137.352 52.3093C137.558 52.1031 137.806 52 138.095 52C138.369 52 138.603 52.1031 138.796 52.3093C139.002 52.5017 139.105 52.7354 139.105 53.0103C139.105 53.299 139.002 53.5464 138.796 53.7526C138.603 53.945 138.369 54.0412 138.095 54.0412C137.806 54.0412 137.565 53.9381 137.373 53.732C137.167 53.5395 137.064 53.299 137.064 53.0103Z" fill="black"/>
<path d="M142.843 62.9485H141.235V55.2784H142.843V56.6598C143.104 56.1924 143.461 55.8282 143.915 55.567C144.382 55.2921 144.877 55.1546 145.4 55.1546C146.293 55.1546 147.001 55.4227 147.523 55.9588C148.046 56.4948 148.307 57.2577 148.307 58.2474V62.9485H146.678V58.7423C146.678 57.3265 146.094 56.6186 144.925 56.6186C144.334 56.6186 143.839 56.811 143.441 57.1959C143.042 57.567 142.843 58.0962 142.843 58.7835V62.9485Z" fill="black"/>
<path d="M152.53 55.2784H154.551V56.5773H152.53V62.9485H150.922V56.5773H149.953V55.2784H150.922V54.6804C150.922 53.8969 151.163 53.2646 151.644 52.7835C152.125 52.2887 152.716 52.0412 153.417 52.0412C154.118 52.0412 154.743 52.2955 155.293 52.8041L154.633 53.9381C154.304 53.6082 153.974 53.4433 153.644 53.4433C153.3 53.4433 153.025 53.5533 152.819 53.7732C152.627 53.9794 152.53 54.268 152.53 54.6392V55.2784Z" fill="black"/>
<path d="M159.643 61.6289C160.344 61.6289 160.922 61.3952 161.375 60.9278C161.843 60.4605 162.076 59.8557 162.076 59.1134C162.076 58.3711 161.843 57.7663 161.375 57.299C160.922 56.8316 160.344 56.5979 159.643 56.5979C158.942 56.5979 158.365 56.8316 157.911 57.299C157.458 57.7663 157.231 58.3711 157.231 59.1134C157.231 59.8557 157.458 60.4536 157.911 60.9072C158.365 61.3883 158.942 61.6289 159.643 61.6289ZM159.643 63.0722C158.489 63.0722 157.526 62.6942 156.757 61.9381C155.987 61.1684 155.602 60.2268 155.602 59.1134C155.602 58 155.987 57.0653 156.757 56.3093C157.526 55.5395 158.489 55.1546 159.643 55.1546C160.798 55.1546 161.76 55.5395 162.53 56.3093C163.3 57.0653 163.684 58 163.684 59.1134C163.684 60.1856 163.3 61.1203 162.53 61.9175C161.76 62.6873 160.798 63.0722 159.643 63.0722Z" fill="black"/>
<path d="M0 3L164 3.00001" stroke="#0D7B0A" stroke-width="6"/>
</svg>
