<?xml version="1.0" encoding="utf-8"?>
<!-- Generator: Adobe Illustrator 16.0.0, SVG Export Plug-In . SVG Version: 6.00 Build 0)  -->
<!DOCTYPE svg PUBLIC "-//W3C//DTD SVG 1.1//EN" "http://www.w3.org/Graphics/SVG/1.1/DTD/svg11.dtd">
<svg version="1.1" id="Layer_1" xmlns="http://www.w3.org/2000/svg" xmlns:xlink="http://www.w3.org/1999/xlink" x="0px" y="0px"
	 width="553px" height="185px" viewBox="0 0 553 185" enable-background="new 0 0 553 185" xml:space="preserve">
<g>
	<g>
		<path fill="#231F20" d="M184.322,59.638c0-0.932,0.839-1.677,1.771-1.677h2.329l42.017,52.357c0.093,0,0.093,0,0.186,0V60.663
			c0-0.932,0.746-1.771,1.771-1.771h3.26c0.933,0,1.771,0.838,1.771,1.771v62.698c0,0.932-0.838,1.678-1.771,1.678h-1.677
			l-42.762-53.383h-0.093v50.682c0,0.931-0.746,1.77-1.771,1.77h-3.26c-0.932,0-1.771-0.839-1.771-1.77V59.638z"/>
		<path fill="#231F20" d="M247.489,121.685l28.321-62.699c0.28-0.559,0.747-1.024,1.584-1.024h0.932
			c0.838,0,1.304,0.465,1.583,1.024l28.136,62.699c0.559,1.211-0.186,2.423-1.583,2.423h-3.728c-0.839,0-1.397-0.559-1.583-1.025
			l-6.895-15.372h-33.072l-6.802,15.372c-0.186,0.467-0.745,1.025-1.583,1.025h-3.725
			C247.675,124.107,246.929,122.896,247.489,121.685z M291.741,101.934c-4.565-10.154-9.037-20.402-13.602-30.557h-0.746
			l-13.602,30.557H291.741z"/>
		<path fill="#231F20" d="M323.792,65.135h-16.21c-1.024,0-1.771-0.839-1.771-1.771v-2.701c0-0.932,0.747-1.771,1.771-1.771h39.501
			c1.025,0,1.77,0.838,1.77,1.771v2.701c0,0.932-0.744,1.771-1.77,1.771h-16.211v57.203c0,0.931-0.838,1.77-1.77,1.77h-3.54
			c-0.932,0-1.771-0.839-1.771-1.77V65.135z"/>
		<path fill="#231F20" d="M346.619,121.685l28.321-62.699c0.28-0.559,0.745-1.024,1.584-1.024h0.933
			c0.839,0,1.303,0.465,1.584,1.024l28.136,62.699c0.558,1.211-0.187,2.423-1.586,2.423h-3.726c-0.839,0-1.397-0.559-1.583-1.025
			l-6.895-15.372h-33.074l-6.8,15.372c-0.187,0.467-0.745,1.025-1.584,1.025h-3.727
			C346.805,124.107,346.061,122.896,346.619,121.685z M390.871,101.934c-4.563-10.154-9.036-20.402-13.6-30.557h-0.747
			l-13.601,30.557H390.871z"/>
		<path fill="#231F20" d="M417.332,60.663c0-0.932,0.746-1.771,1.77-1.771h24.13c11.181,0,20.311,8.758,20.311,19.844
			c0,8.571-5.683,15.745-13.788,19.006l12.764,23.663c0.65,1.212,0,2.702-1.584,2.702h-4.752c-0.839,0-1.306-0.466-1.492-0.839
			l-12.389-24.688h-17.794v23.757c0,0.931-0.839,1.77-1.77,1.77h-3.636c-1.023,0-1.77-0.839-1.77-1.77V60.663z M442.765,92.431
			c7.175,0,13.417-5.962,13.417-13.602c0-7.081-6.242-13.136-13.417-13.136h-18.072v26.738H442.765z"/>
		<path fill="#231F20" d="M507.795,57.961c9.41,0,16.211,3.26,22.547,8.664c0.744,0.745,0.84,1.863,0.092,2.608l-2.514,2.515
			c-0.748,0.932-1.492,0.839-2.422-0.093c-4.846-4.192-11.461-6.988-17.795-6.988c-14.719,0-25.994,12.392-25.994,26.832
			c0,14.347,11.275,26.737,25.994,26.737c8.105,0,12.855-3.261,17.795-6.987c0.93-0.744,1.674-0.651,2.236-0.279l2.793,2.516
			c0.746,0.56,0.559,1.863-0.094,2.516c-6.334,6.148-14.348,9.037-22.639,9.037c-18.631,0-33.631-14.813-33.631-33.446
			C474.164,72.96,489.164,57.961,507.795,57.961z"/>
	</g>
	<g>
		<g>
			<g>
				<path fill="#231F20" d="M133.934,86.12H94.561c-1.518,0-2.749-1.229-2.749-2.749V21.227H55.183
					c-16.374,0-29.696,13.323-29.696,29.7c0,16.375,13.322,29.695,29.696,29.695c11.905,0,21.585-9.681,21.585-21.583
					c0-11.902-9.681-21.588-21.585-21.588c-7.431,0-13.475,6.045-13.475,13.476c0,7.43,6.044,13.476,13.475,13.476
					c1.517,0,2.749,1.23,2.749,2.748c0,1.518-1.231,2.75-2.749,2.75c-10.461,0-18.973-8.511-18.973-18.973
					s8.512-18.973,18.973-18.973c14.936,0,27.083,12.151,27.083,27.085S70.119,86.12,55.183,86.12
					c-19.406,0-35.193-15.787-35.193-35.192c0-19.408,15.787-35.197,35.193-35.197h39.377c1.518,0,2.749,1.231,2.749,2.749v62.144
					h36.625c16.378,0,29.7-13.321,29.7-29.695c0-16.377-13.322-29.7-29.7-29.7c-11.9,0-21.586,9.686-21.586,21.587
					c0,11.903,9.686,21.589,21.586,21.589c7.434,0,13.479-6.045,13.479-13.476c0-7.431-6.045-13.476-13.479-13.476
					c-1.517,0-2.749-1.23-2.749-2.749c0-1.517,1.231-2.749,2.749-2.749c10.465,0,18.976,8.512,18.976,18.973
					S144.399,69.9,133.934,69.9c-14.933,0-27.083-12.151-27.083-27.086c0-14.933,12.15-27.084,27.083-27.084
					c19.406,0,35.197,15.789,35.197,35.197C169.131,70.333,153.34,86.12,133.934,86.12z"/>
			</g>
			<g>
				<g>
					<path fill="#231F20" d="M133.934,167.27c-14.933,0-27.083-12.151-27.083-27.087c0-14.934,12.15-27.083,27.083-27.083
						c10.465,0,18.976,8.512,18.976,18.973c0,10.46-8.511,18.969-18.976,18.969c-1.517,0-2.749-1.229-2.749-2.749
						c0-1.517,1.231-2.748,2.749-2.748c7.434,0,13.479-6.044,13.479-13.472c0-7.431-6.045-13.476-13.479-13.476
						c-11.9,0-21.586,9.683-21.586,21.586c0,11.904,9.686,21.59,21.586,21.59c16.378,0,29.7-13.325,29.7-29.7
						c0-16.378-13.322-29.701-29.7-29.701H55.183c-16.374,0-29.696,13.323-29.696,29.701c0,16.375,13.322,29.7,29.696,29.7
						c11.905,0,21.585-9.686,21.585-21.59c0-11.903-9.681-21.586-21.585-21.586c-7.431,0-13.475,6.045-13.475,13.476
						c0,7.428,6.044,13.472,13.475,13.472c1.517,0,2.749,1.231,2.749,2.748c0,1.521-1.231,2.749-2.749,2.749
						c-10.461,0-18.973-8.509-18.973-18.969c0-10.461,8.512-18.973,18.973-18.973c14.936,0,27.083,12.149,27.083,27.083
						c0,14.936-12.147,27.087-27.083,27.087c-19.406,0-35.193-15.791-35.193-35.197c0-19.41,15.787-35.198,35.193-35.198h78.751
						c19.406,0,35.197,15.788,35.197,35.198C169.131,151.479,153.34,167.27,133.934,167.27z"/>
				</g>
				<g>
					
						<path fill="#231F20" stroke="#000000" stroke-width="3" stroke-linecap="round" stroke-linejoin="round" stroke-miterlimit="10" d="
						M94.561,99.878"/>
				</g>
				<g>
					<path fill="#231F20" d="M94.561,167.27c-1.518,0-2.749-1.231-2.749-2.75V99.878c0-1.519,1.23-2.749,2.749-2.749
						c1.518,0,2.749,1.23,2.749,2.749v64.641C97.309,166.038,96.078,167.27,94.561,167.27z"/>
				</g>
			</g>
		</g>
	</g>
</g>
</svg>
